<?xml version="1.0" encoding="utf-8"?>
<!-- Generator: Adobe Illustrator 24.0.3, SVG Export Plug-In . SVG Version: 6.00 Build 0)  -->
<svg version="1.1" id="Layer_1" xmlns="http://www.w3.org/2000/svg" xmlns:xlink="http://www.w3.org/1999/xlink" x="0px" y="0px"
	 viewBox="0 0 100 100" style="enable-background:new 0 0 100 100;" xml:space="preserve">
<style type="text/css">
	.st0{fill:#FFFFFF;stroke:#000000;stroke-width:4;stroke-miterlimit:10;}
</style>
<path class="st0" d="M78.96,94.02c-1.53,0.43-3.16,0.58-4.82,0.41l-5.47-0.56c-3.32-0.34-6.34-2.08-8.31-4.77L18.57,31.85l4.3-3.14
	l-3.41-4.68c-1.4-1.92-2.02-4.24-1.74-6.54c0.28-2.33,1.44-4.36,3.27-5.71l7.09-5.91c5.24-3.83,12.63-2.68,16.45,2.57L88.2,68.28
	c2.17,2.98,2.83,6.86,1.75,10.39l-2.02,6.62C86.6,89.63,83.13,92.85,78.96,94.02z M55.97,68.28l11.44,15.67
	c0.51,0.7,1.29,1.14,2.15,1.23l5.47,0.56c1.05,0.11,2.11-0.18,2.97-0.81c0.76-0.55,1.3-1.32,1.58-2.21l2.02-6.62
	c0.28-0.91,0.11-1.91-0.45-2.68l-11.2-15.34l-0.65,3.93c-0.75,4.5-4.87,7.5-9.38,6.85L55.97,68.28z M26.09,18.43
	c-0.01,0.12,0.02,0.36,0.21,0.62l29.48,40.38c0.19,0.26,0.43,0.38,0.55,0.39L61,60.5l0.78-4.67c0.02-0.12-0.02-0.38-0.21-0.64
	l-26.06-35.7l4.09-2.98l-2.13-2.91c-0.48-0.65-1.18-1.08-1.99-1.21c-0.8-0.13-1.61,0.07-2.26,0.55l-4.47,3.26L26.09,18.43z"/>
</svg>
