<?xml version="1.0" encoding="utf-8"?>
<!-- Generator: Adobe Illustrator 24.0.3, SVG Export Plug-In . SVG Version: 6.00 Build 0)  -->
<svg version="1.1" id="Layer_1" xmlns="http://www.w3.org/2000/svg" xmlns:xlink="http://www.w3.org/1999/xlink" x="0px" y="0px"
	 viewBox="0 0 100 100" style="enable-background:new 0 0 100 100;" xml:space="preserve">
<style type="text/css">
	.st0{fill:#FFFFFF;stroke:#000000;stroke-width:4;stroke-miterlimit:10;}
</style>
<path class="st0" d="M10.34,11.59h59.33c4.05,0,7.34,3.31,7.34,7.4v41.42c0,4.09-3.28,7.4-7.34,7.4H36.78L18.67,81V67.82h-8.34
	c-4.05,0-7.34-3.31-7.34-7.4V18.99C3,14.91,6.28,11.59,10.34,11.59z"/>
<path class="st0" d="M82.7,41H38.47C35.45,41,33,43.34,33,46.23v29.24c0,2.89,2.45,5.23,5.47,5.23h24.51l13.5,9.3v-9.3h6.21
	c3.02,0,5.47-2.34,5.47-5.23V46.23C88.17,43.34,85.72,41,82.7,41z"/>
</svg>
