<?xml version="1.0" encoding="utf-8"?>
<!-- Generator: Adobe Illustrator 24.0.3, SVG Export Plug-In . SVG Version: 6.00 Build 0)  -->
<svg version="1.1" id="Layer_1" xmlns="http://www.w3.org/2000/svg" xmlns:xlink="http://www.w3.org/1999/xlink" x="0px" y="0px"
	 viewBox="0 0 100 100" style="enable-background:new 0 0 100 100;" xml:space="preserve">
<style type="text/css">
	.st0{fill:#FFFFFF;}
</style>
<g>
	<g>
		<polygon class="st0" points="22.53,82.25 23.96,81.47 22.53,81.21 23.95,80.43 22.54,80.17 23.95,79.4 22.53,79.14 23.95,78.36 
			22.53,78.1 23.96,77.32 22.53,77.06 23.95,76.28 22.54,76.02 23.95,75.24 22.53,74.99 23.95,74.21 22.53,73.95 23.96,73.17 
			22.53,72.91 23.95,72.13 22.54,71.87 23.95,71.09 22.53,70.83 23.95,70.05 22.53,69.8 50.55,54.43 87.86,60.03 86.65,60.88 
			87.86,61.06 86.65,61.92 87.86,62.1 86.64,62.96 87.86,63.14 86.65,63.99 87.86,64.18 86.65,65.03 87.86,65.21 86.65,66.07 
			87.86,66.25 86.64,67.11 87.86,67.29 86.65,68.15 87.86,68.33 86.65,69.18 87.86,69.37 86.65,70.22 87.86,70.4 86.64,71.26 
			87.86,71.44 86.65,72.3 87.86,72.48 63.42,89.68 		"/>
		<path d="M50.83,55.99l33.11,4.97l-1.22,0.86l1.22,0.18l-1.22,0.86l1.22,0.18l-1.22,0.86l1.22,0.18l-1.22,0.86l1.22,0.18
			l-1.22,0.86l1.22,0.18L82.72,67l1.22,0.18l-1.22,0.86l1.22,0.18l-1.22,0.86l1.22,0.18l-1.22,0.86l1.22,0.18l-1.22,0.86l1.22,0.18
			l-1.22,0.86l1.22,0.18l-1.22,0.86l1.22,0.18L63.07,88.09l-36.1-6.56l1.42-0.78l-1.42-0.26l1.42-0.78l-1.42-0.26l1.42-0.78
			l-1.42-0.26l1.42-0.78l-1.42-0.26l1.42-0.78l-1.42-0.26l1.42-0.78l-1.42-0.26l1.42-0.78l-1.42-0.26l1.42-0.78l-1.42-0.26
			l1.42-0.78l-1.42-0.26l1.42-0.78l-1.42-0.26l1.42-0.78l-1.42-0.26l1.42-0.78l-1.42-0.26L50.83,55.99 M50.27,52.87L18.1,70.51
			l1.42,0.26l-1.42,0.78l1.42,0.26l-1.42,0.78l1.42,0.26l-1.42,0.78l1.42,0.26l-1.42,0.78l1.42,0.26L18.1,75.7l1.42,0.26l-1.42,0.78
			L19.52,77l-1.42,0.78l1.42,0.26l-1.42,0.78l1.42,0.26l-1.42,0.78l1.42,0.26l-1.42,0.78l1.42,0.26l-1.42,0.78l1.42,0.26l-1.42,0.78
			l45.66,8.3l28.02-19.72l-1.22-0.18l1.22-0.86l-1.22-0.18l1.22-0.86l-1.22-0.18l1.22-0.86l-1.22-0.18l1.22-0.86l-1.22-0.18
			l1.22-0.86l-1.22-0.18l1.22-0.86l-1.22-0.18l1.22-0.86l-1.22-0.18l1.22-0.86l-1.22-0.18l1.22-0.86l-1.22-0.18l1.22-0.86
			l-1.22-0.18l1.22-0.86l-1.22-0.18l1.22-0.86L50.27,52.87L50.27,52.87z"/>
	</g>
	<g>
		<path class="st0" d="M18.9,87.29l-0.31-0.14c-1.06-0.67-3.83-6.94-3.83-10.93c0-4.46,1.27-10.06,2.21-10.97l0.91-0.32v-0.26
			l32.66-17l39.75,5.96v3.63L63.42,76.19L18.8,68.08l1.02,2.53c0.6,1.49,0.93,3.48,0.93,5.62c0,1.57-0.18,3.09-0.53,4.4l-0.9,3.39
			L32.1,77L63.56,83l17.7-11.51l9.02,1.35v3.63L63.42,95.38L18.9,87.29z"/>
		<path d="M50.79,49.24l37.99,5.7v1.56L63.07,74.6l-41.32-7.51l-3.6-0.66l1.23-0.43v-0.41L50.79,49.24 M17.3,68.38l1.13,2.78
			c0.52,1.29,0.82,3.14,0.82,5.06c0,1.44-0.17,2.83-0.48,4.02l-0.78,2.92c-0.89-2.11-1.73-4.92-1.73-6.94
			C16.26,73.52,16.76,70.44,17.3,68.38 M81.6,73.06l7.18,1.08v1.56L63.07,93.8l-43.6-7.93l-0.02-0.01c-0.04-0.05-0.08-0.1-0.12-0.15
			l3.78-2.07l9.23-5.06l30.34,5.78l1.18,0.23l1.01-0.66L81.6,73.06 M50.27,46.13l-33.9,17.64v0.1c-1.76,0.61-3.11,7.9-3.11,12.35
			c0,4.44,3.08,11.74,4.84,12.35v0.1l45.66,8.3l28.02-19.72v-4.66v-1.04l-10.86-1.63L63.25,81.41l-31.4-5.98l-10.18,5.58
			c0.37-1.38,0.58-3.02,0.58-4.79c0-2.41-0.4-4.59-1.04-6.18l42.56,7.74l28.02-19.72v-1.04v-4.66L50.27,46.13L50.27,46.13z"/>
	</g>
	<g>
		<path class="st0" d="M22.43,83.02c-1.99-0.36-2.29-4.09-2.29-6.28c0-1.85,0-5.2,1.28-6.21l42.59,7.27l25.8-18.57l0.04,0.02
			l-1.89,1.33l1.22,0.18l-1.22,0.86l1.22,0.18l-1.22,0.86l1.22,0.18l-1.21,0.85l1.22,0.18l-1.22,0.86l1.22,0.18l-1.22,0.86
			l1.22,0.18l-1.22,0.86l1.22,0.18l-1.21,0.85l1.22,0.18l-1.22,0.86l1.22,0.18l-1.22,0.86l1.22,0.18l-1.22,0.86l1.22,0.18
			l-1.21,0.85l1.22,0.18L63.53,90.21L22.43,83.02z"/>
		<path d="M85.81,63.34l0.75,0.11l-1.22,0.86l1.22,0.18l-1.22,0.86l1.22,0.18l-1.22,0.86l1.22,0.18l-1.22,0.86l1.22,0.18l-1.22,0.86
			l1.22,0.18l-1.22,0.86l1.22,0.18l-1.22,0.86l1.22,0.18l-1.22,0.86l1.22,0.18l-1.22,0.86l1.22,0.18L63.29,89.16l-40.68-7.12
			c-0.73-0.13-1.47-1.82-1.47-5.3c0-2.7,0.22-4.42,0.64-5.14l41.65,7.11l0.83,0.14l0.68-0.49L85.81,63.34 M89.71,58.06L63.77,76.74
			l-42.55-7.26c-2.08,1.04-2.08,4.86-2.08,7.26c0,2.99,0.51,6.79,3.11,7.26l41.51,7.26l28.02-19.72l-1.22-0.18l1.22-0.86l-1.22-0.18
			l1.22-0.86l-1.22-0.18l1.22-0.86l-1.22-0.18l1.22-0.86l-1.22-0.18l1.22-0.86l-1.22-0.18l1.22-0.86l-1.22-0.18l1.22-0.86
			l-1.22-0.18l1.22-0.86l-1.22-0.18l1.22-0.86l-1.22-0.18l1.22-0.86l-1.22-0.18l1.22-0.86l-1.22-0.18l1.22-0.86L89.71,58.06
			L89.71,58.06z"/>
	</g>
</g>
<g>
	<g>
		<polygon class="st0" points="15.9,59.03 17.32,58.25 15.9,57.99 17.32,57.21 15.9,56.95 17.32,56.17 15.9,55.91 17.32,55.13 
			15.9,54.87 17.32,54.1 15.9,53.84 17.32,53.06 15.9,52.8 17.32,52.02 15.9,51.76 17.32,50.98 15.9,50.72 17.32,49.94 15.9,49.68 
			17.32,48.91 15.9,48.65 17.32,47.87 15.9,47.61 17.32,46.83 15.9,46.57 43.92,31.21 81.23,36.8 80.01,37.66 81.23,37.84 
			80.01,38.7 81.23,38.88 80.01,39.73 81.23,39.91 80.01,40.77 81.23,40.95 80.01,41.81 81.23,41.99 80.01,42.85 81.23,43.03 
			80.01,43.88 81.23,44.07 80.01,44.92 81.23,45.1 80.01,45.96 81.23,46.14 80.01,47 81.23,47.18 80.01,48.04 81.23,48.22 
			80.01,49.07 81.23,49.25 56.78,66.46 		"/>
		<path d="M44.19,32.76l33.11,4.97l-1.22,0.86l1.22,0.18l-1.22,0.86l1.22,0.18l-1.22,0.86l1.22,0.18l-1.22,0.86l1.22,0.18
			l-1.22,0.86l1.22,0.18l-1.22,0.86l1.22,0.18l-1.22,0.86l1.22,0.18l-1.22,0.86l1.22,0.18l-1.22,0.86l1.22,0.18l-1.22,0.86
			l1.22,0.18l-1.22,0.86l1.22,0.18L76.09,50l1.22,0.18L56.43,64.87l-36.1-6.56l1.42-0.78l-1.42-0.26l1.42-0.78l-1.42-0.26l1.42-0.78
			l-1.42-0.26l1.42-0.78l-1.42-0.26l1.42-0.78l-1.42-0.26l1.42-0.78l-1.42-0.26l1.42-0.78l-1.42-0.26l1.42-0.78L20.33,50l1.42-0.78
			l-1.42-0.26l1.42-0.78l-1.42-0.26l1.42-0.78l-1.42-0.26l1.42-0.78l-1.42-0.26L44.19,32.76 M43.64,29.65L11.47,47.29l1.42,0.26
			l-1.42,0.78l1.42,0.26l-1.42,0.78l1.42,0.26l-1.42,0.78l1.42,0.26l-1.42,0.78l1.42,0.26l-1.42,0.78l1.42,0.26l-1.42,0.78
			l1.42,0.26l-1.42,0.78l1.42,0.26l-1.42,0.78l1.42,0.26l-1.42,0.78l1.42,0.26l-1.42,0.78l1.42,0.26l-1.42,0.78l1.42,0.26
			l-1.42,0.78l45.66,8.3l28.02-19.72l-1.22-0.18l1.22-0.86l-1.22-0.18l1.22-0.86l-1.22-0.18l1.22-0.86l-1.22-0.18l1.22-0.86
			l-1.22-0.18l1.22-0.86l-1.22-0.18l1.22-0.86l-1.22-0.18l1.22-0.86l-1.22-0.18l1.22-0.86l-1.22-0.18l1.22-0.86l-1.22-0.18
			l1.22-0.86l-1.22-0.18l1.22-0.86l-1.22-0.18l1.22-0.86L43.64,29.65L43.64,29.65z"/>
	</g>
	<g>
		<path class="st0" d="M12.45,64.1l-0.49-0.17C10.9,63.26,8.13,56.99,8.13,53c0-4.46,1.27-10.06,2.21-10.97l0.91-0.32v-0.26
			l32.66-17l39.75,5.96v3.63L56.78,52.97l-44.62-8.11l1.02,2.53c0.6,1.49,0.93,3.48,0.93,5.62c0,1.57-0.18,3.09-0.53,4.4l-0.91,3.39
			l12.78-7.01l31.46,5.99l17.7-11.51l9.02,1.35v3.63L56.78,72.16L12.45,64.1z"/>
		<path d="M44.16,26.02l37.99,5.7v1.56l-25.72,18.1l-41.32-7.51l-3.6-0.66l1.23-0.43v-0.41L44.16,26.02 M10.67,45.16l1.13,2.78
			c0.52,1.29,0.82,3.14,0.82,5.06c0,1.44-0.17,2.83-0.48,4.02l-0.78,2.92c-0.89-2.11-1.73-4.92-1.73-6.94
			C9.63,50.29,10.12,47.21,10.67,45.16 M74.97,49.83l7.18,1.08v1.56l-25.72,18.1l-43.6-7.93l-0.02-0.01
			c-0.04-0.05-0.08-0.1-0.12-0.15l3.78-2.07l9.23-5.06l30.34,5.78l1.18,0.23l1.01-0.66L74.97,49.83 M43.64,22.91L9.74,40.55v0.1
			C7.98,41.26,6.63,48.55,6.63,53c0,4.44,3.08,11.74,4.84,12.35v0.1l45.66,8.3l28.02-19.72v-4.66v-1.04L74.29,46.7L56.61,58.19
			l-31.4-5.98l-10.18,5.58c0.37-1.38,0.58-3.02,0.58-4.79c0-2.41-0.4-4.59-1.04-6.18l42.56,7.74l28.02-19.72V33.8v-4.66L43.64,22.91
			L43.64,22.91z"/>
	</g>
	<g>
		<path class="st0" d="M15.79,59.8c-1.99-0.36-2.29-4.09-2.29-6.28c0-1.85,0-5.2,1.28-6.22l42.59,7.27L83.17,36l0.04,0.02
			l-1.89,1.33l1.22,0.18l-1.22,0.86l1.22,0.18l-1.21,0.85l1.22,0.18l-1.22,0.86l1.22,0.18l-1.21,0.85l1.22,0.18l-1.22,0.86
			l1.22,0.18l-1.21,0.85l1.22,0.18l-1.22,0.86l1.22,0.18l-1.22,0.86l1.22,0.18l-1.21,0.85l1.22,0.18l-1.22,0.86l1.22,0.18
			l-1.21,0.85l1.22,0.18L56.89,66.99L15.79,59.8z"/>
		<path d="M79.17,40.11l0.75,0.11l-1.22,0.86l1.22,0.18l-1.22,0.86l1.22,0.18l-1.22,0.86l1.22,0.18l-1.22,0.86l1.22,0.18l-1.22,0.86
			l1.22,0.18l-1.22,0.86l1.22,0.18l-1.22,0.86l1.22,0.18l-1.22,0.86l1.22,0.18l-1.22,0.86l1.22,0.18L56.66,65.93l-40.68-7.12
			c-0.73-0.13-1.47-1.82-1.47-5.3c0-2.7,0.22-4.42,0.64-5.14l41.65,7.11l0.83,0.14l0.68-0.49L79.17,40.11 M83.08,34.84L57.13,53.52
			l-42.55-7.26c-2.08,1.04-2.08,4.86-2.08,7.26c0,2.99,0.51,6.79,3.11,7.26l41.51,7.26l28.02-19.72l-1.22-0.18l1.22-0.86l-1.22-0.18
			l1.22-0.86l-1.22-0.18l1.22-0.86l-1.22-0.18l1.22-0.86l-1.22-0.18l1.22-0.86l-1.22-0.18l1.22-0.86l-1.22-0.18l1.22-0.86
			l-1.22-0.18l1.22-0.86l-1.22-0.18l1.22-0.86l-1.22-0.18l1.22-0.86l-1.22-0.18l1.22-0.86l-1.22-0.18l1.22-0.86L83.08,34.84
			L83.08,34.84z"/>
	</g>
</g>
<g>
	<g>
		<polygon class="st0" points="24.74,39.12 26.16,38.34 24.74,38.08 26.17,37.3 24.74,37.04 26.16,36.26 24.74,36.01 26.17,35.23 
			24.74,34.97 26.16,34.19 24.74,33.93 26.17,33.15 24.74,32.89 26.16,32.11 24.74,31.85 26.17,31.07 24.74,30.82 26.16,30.04 
			24.74,29.78 26.17,29 24.74,28.74 26.16,27.96 24.74,27.7 26.17,26.92 24.74,26.66 52.76,11.3 90.07,16.9 88.86,17.75 
			90.07,17.93 88.86,18.79 90.08,18.97 88.86,19.83 90.07,20.01 88.86,20.86 90.08,21.05 88.86,21.9 90.07,22.08 88.86,22.94 
			90.08,23.12 88.86,23.98 90.07,24.16 88.86,25.01 90.08,25.2 88.86,26.05 90.07,26.24 88.86,27.09 90.07,27.27 88.86,28.13 
			90.08,28.31 88.86,29.17 90.07,29.35 65.63,46.55 		"/>
		<path d="M53.04,12.86l33.11,4.97l-1.22,0.86l1.22,0.18l-1.22,0.86l1.22,0.18l-1.22,0.86l1.22,0.18l-1.22,0.86l1.22,0.18
			l-1.22,0.86l1.22,0.18l-1.22,0.86l1.22,0.18l-1.22,0.86l1.22,0.18l-1.22,0.86l1.22,0.18l-1.22,0.86l1.22,0.18l-1.22,0.86
			l1.22,0.18l-1.22,0.86l1.22,0.18l-1.22,0.86l1.22,0.18L65.28,44.96l-36.1-6.56l1.42-0.78l-1.42-0.26l1.42-0.78l-1.42-0.26
			l1.42-0.78l-1.42-0.26l1.42-0.78l-1.42-0.26l1.42-0.78l-1.42-0.26l1.42-0.78l-1.42-0.26l1.42-0.78l-1.42-0.26l1.42-0.78
			l-1.42-0.26l1.42-0.78l-1.42-0.26l1.42-0.78l-1.42-0.26l1.42-0.78l-1.42-0.26l1.42-0.78l-1.42-0.26L53.04,12.86 M52.49,9.74
			L20.31,27.38l1.42,0.26l-1.42,0.78l1.42,0.26l-1.42,0.78l1.42,0.26l-1.42,0.78l1.42,0.26l-1.42,0.78l1.42,0.26l-1.42,0.78
			l1.42,0.26l-1.42,0.78l1.42,0.26l-1.42,0.78l1.42,0.26l-1.42,0.78l1.42,0.26l-1.42,0.78l1.42,0.26l-1.42,0.78l1.42,0.26
			l-1.42,0.78l1.42,0.26l-1.42,0.78l45.66,8.3L94,28.42l-1.22-0.18L94,27.38l-1.22-0.18L94,26.35l-1.22-0.18L94,25.31l-1.22-0.18
			L94,24.27l-1.22-0.18L94,23.23l-1.22-0.18L94,22.19l-1.22-0.18L94,21.16l-1.22-0.18L94,20.12l-1.22-0.18L94,19.08l-1.22-0.18
			L94,18.04l-1.22-0.18L94,17l-1.22-0.18L94,15.97L52.49,9.74L52.49,9.74z"/>
	</g>
	<g>
		<path class="st0" d="M21.3,44.19l-0.49-0.17c-1.06-0.66-3.83-6.94-3.83-10.93c0-4.46,1.27-10.06,2.21-10.97l0.91-0.32v-0.26
			l32.66-17l39.75,5.96v3.63L65.63,33.06l-44.62-8.11l1.02,2.53c0.6,1.49,0.93,3.48,0.93,5.62c0,1.57-0.18,3.09-0.53,4.4l-0.9,3.39
			l12.78-7.01l31.46,5.99l17.7-11.51l9.02,1.35v3.63L65.63,52.25L21.3,44.19z"/>
		<path d="M53.01,6.11L91,11.81v1.56l-25.72,18.1l-41.32-7.51l-3.6-0.66l1.23-0.43v-0.41L53.01,6.11 M19.51,25.25l1.13,2.78
			c0.52,1.29,0.82,3.14,0.82,5.06c0,1.44-0.17,2.83-0.48,4.02l-0.78,2.92c-0.89-2.11-1.73-4.92-1.73-6.94
			C18.47,30.39,18.97,27.3,19.51,25.25 M83.82,29.93L91,31v1.56l-25.72,18.1l-43.6-7.93l-0.02-0.01c-0.04-0.05-0.08-0.1-0.12-0.15
			l3.78-2.07l9.23-5.06l30.34,5.78l1.18,0.23l1.01-0.66L83.82,29.93 M52.49,3l-33.9,17.64v0.1c-1.76,0.61-3.11,7.9-3.11,12.35
			c0,4.44,3.08,11.74,4.84,12.35v0.1l45.66,8.3L94,34.12v-4.66v-1.04l-10.86-1.63L65.46,38.28l-31.4-5.98l-10.18,5.58
			c0.37-1.38,0.58-3.02,0.58-4.79c0-2.41-0.4-4.59-1.04-6.18l42.56,7.74L94,14.93v-1.04V9.23L52.49,3L52.49,3z"/>
	</g>
	<g>
		<path class="st0" d="M24.64,39.89c-1.99-0.36-2.29-4.09-2.29-6.28c0-1.85,0-5.2,1.28-6.22l42.59,7.27l25.8-18.57l0.04,0.02
			l-1.89,1.33l1.22,0.18l-1.21,0.85l1.22,0.18l-1.22,0.86l1.22,0.18l-1.21,0.85l1.22,0.18l-1.22,0.86l1.22,0.18l-1.21,0.85
			l1.22,0.18l-1.22,0.86l1.22,0.18l-1.21,0.85l1.22,0.18l-1.22,0.86l1.22,0.18l-1.22,0.86l1.22,0.18l-1.21,0.85L91.38,28l-1.22,0.86
			l1.22,0.18L65.74,47.08L24.64,39.89z"/>
		<path d="M88.02,20.21l0.75,0.11l-1.22,0.86l1.22,0.18l-1.22,0.86l1.22,0.18l-1.22,0.86l1.22,0.18l-1.22,0.86l1.22,0.18l-1.22,0.86
			l1.22,0.18l-1.22,0.86l1.22,0.18l-1.22,0.86l1.22,0.18l-1.22,0.86l1.22,0.18l-1.22,0.86l1.22,0.18L65.51,46.03l-40.68-7.12
			c-0.73-0.13-1.47-1.82-1.47-5.3c0-2.7,0.22-4.42,0.64-5.14l41.65,7.11l0.83,0.14l0.68-0.49L88.02,20.21 M91.92,14.93L65.98,33.61
			l-42.55-7.26c-2.08,1.04-2.08,4.86-2.08,7.26c0,2.99,0.51,6.79,3.11,7.26l41.51,7.26L94,28.42l-1.22-0.18L94,27.38l-1.22-0.18
			L94,26.35l-1.22-0.18L94,25.31l-1.22-0.18L94,24.27l-1.22-0.18L94,23.23l-1.22-0.18L94,22.19l-1.22-0.18L94,21.16l-1.22-0.18
			L94,20.12l-1.22-0.18L94,19.08l-1.22-0.18L94,18.04l-1.22-0.18L94,17l-1.22-0.18L94,15.97L91.92,14.93L91.92,14.93z"/>
	</g>
</g>
</svg>
