<?xml version="1.0" encoding="utf-8"?>
<!-- Generator: Adobe Illustrator 24.0.3, SVG Export Plug-In . SVG Version: 6.00 Build 0)  -->
<svg version="1.1" id="Layer_1" xmlns="http://www.w3.org/2000/svg" xmlns:xlink="http://www.w3.org/1999/xlink" x="0px" y="0px"
	 viewBox="0 0 150 180" style="enable-background:new 0 0 150 180;" xml:space="preserve">
<style type="text/css">
	.st0{fill:#FFFFFF;}
</style>
<g>
	<path class="st0" d="M145,5v170H5V26.84L25.81,5H145 M148,2H24.53L2,25.64V178h146V2L148,2z"/>
</g>
<g>
	<path class="st0" d="M22.18,9.1l0.4,13.81L8.76,23.25L22.18,9.1 M24.96,1.8L1.62,26.43l24.05-0.59L24.96,1.8L24.96,1.8z"/>
</g>
<g>
	<polygon class="st0" points="65.5,125.5 65.5,102.5 42.5,102.5 42.5,86.5 65.5,86.5 65.5,63.5 81.5,63.5 81.5,86.5 104.5,86.5 
		104.5,102.5 81.5,102.5 81.5,125.5 	"/>
	<path class="st0" d="M80,65v20v3h3h20v13H83h-3v3v20H67v-20v-3h-3H44V88h20h3v-3V65H80 M83,62H64v23H41v19h23v23h19v-23h23V85H83
		V62L83,62z"/>
</g>
</svg>
