<?xml version="1.0" encoding="utf-8"?>
<!-- Generator: Adobe Illustrator 24.0.3, SVG Export Plug-In . SVG Version: 6.00 Build 0)  -->
<svg version="1.1" id="Layer_1" xmlns="http://www.w3.org/2000/svg" xmlns:xlink="http://www.w3.org/1999/xlink" x="0px" y="0px"
	 viewBox="0 0 100 100" style="enable-background:new 0 0 100 100;" xml:space="preserve">
<style type="text/css">
	.st0{fill:#FFFFFF;stroke:#000000;stroke-width:4;stroke-miterlimit:10;}
	.st1{fill:#FFFFFF;stroke:#000000;stroke-width:3;stroke-miterlimit:10;}
	.st2{fill:#FFFFFF;stroke:#000000;stroke-width:5;stroke-miterlimit:10;}
</style>
<polygon class="st0" points="10.5,9.5 11.5,89.5 23.92,89.5 89.5,89.5 "/>
<line class="st1" x1="18.5" y1="83" x2="18.5" y2="89.5"/>
<line class="st1" x1="28.08" y1="83" x2="28.08" y2="89.5"/>
<line class="st1" x1="37.67" y1="83" x2="37.67" y2="89.5"/>
<line class="st1" x1="47.25" y1="83" x2="47.25" y2="89.5"/>
<line class="st1" x1="56.83" y1="83" x2="56.83" y2="89.5"/>
<line class="st1" x1="66.42" y1="83" x2="66.42" y2="89.5"/>
<line class="st1" x1="76" y1="83" x2="76" y2="89.5"/>
<g>
	
		<rect x="54.19" y="11.78" transform="matrix(0.7228 0.6911 -0.6911 0.7228 46.6647 -28.7701)" class="st2" width="10" height="64"/>
	<polygon class="st2" points="26.71,77.75 40.69,70.36 33.46,63.45 	"/>
	<rect x="82.53" y="10.14" transform="matrix(0.7228 0.6911 -0.6911 0.7228 34.0409 -56.5681)" class="st2" width="10" height="8"/>
	<rect x="78.03" y="16.34" transform="matrix(0.7228 0.6911 -0.6911 0.7228 36.0422 -52.1611)" class="st2" width="10" height="5"/>
</g>
</svg>
