<?xml version="1.0" encoding="utf-8"?>
<!-- Generator: Adobe Illustrator 24.0.3, SVG Export Plug-In . SVG Version: 6.00 Build 0)  -->
<svg version="1.1" id="Layer_1" xmlns="http://www.w3.org/2000/svg" xmlns:xlink="http://www.w3.org/1999/xlink" x="0px" y="0px"
	 viewBox="0 0 100 100" style="enable-background:new 0 0 100 100;" xml:space="preserve">
<style type="text/css">
	.st0{fill:#FFFFFF;}
	.st1{stroke:#000000;stroke-width:3;stroke-miterlimit:10;}
</style>
<line x1="75.01" y1="62.44" x2="75.53" y2="62.78"/>
<g>
	<path class="st0" d="M59.2,85c-0.7,0-1.36-0.18-1.98-0.53l-2.01-1.27l-0.06,0.11L49,79.85L10.75,48.88L23.9,26.51l6.86,4.07
		l0.9-0.24l19.6-4.93c0.29-0.07,0.59-0.11,0.89-0.11c1.74,0,3.24,1.23,3.66,3c0.51,2.13-0.74,4.28-2.78,4.79l-11.31,2.85
		l24.36,12.06l9.91,5.58c0.14,0.07,0.19,0.1,0.22,0.12c0.21,0.13,0.41,0.31,0.62,0.55c1.36,1.57,1.67,4.5,1.14,5.5
		c-0.34,0.65-0.82,1.19-1.42,1.59l-1.66,1.1l1.09,1.66c0.91,1.39,1,3.16,0.23,4.63c-0.72,1.37-2.1,2.24-3.6,2.27l-2.61,0.05
		l0.73,2.51c0.33,1.15,0.21,2.36-0.34,3.41c-0.74,1.4-2.14,2.27-3.67,2.27l0,0c-0.29,0-0.59-0.03-0.88-0.1l-2.26-0.51l-0.17,2.32
		c-0.05,0.63-0.22,1.24-0.51,1.79C62.14,84.13,60.73,85,59.2,85z"/>
	<path d="M52.14,27.3L52.14,27.3c0.81,0,1.51,0.6,1.72,1.46c0.25,1.07-0.34,2.14-1.33,2.39l-6.05,1.52l-10.52,2.65l9.73,4.81
		l18.58,9.2l0.86,0.43L75,55.31l0.08,0.04l0.07,0.04c0,0,0.06,0.04,0.16,0.16c0.75,0.87,1.02,2.69,0.85,3.32
		c-0.18,0.33-0.43,0.59-0.73,0.79l-3.32,2.2l2.19,3.33c0.51,0.77,0.56,1.79,0.13,2.6c-0.39,0.74-1.09,1.19-1.87,1.2l-5.22,0.1
		l1.45,5.01c0.19,0.65,0.12,1.33-0.19,1.92c-0.39,0.74-1.12,1.2-1.91,1.2c-0.15,0-0.29-0.02-0.44-0.05l-4.53-1.02l-0.34,4.63
		c-0.03,0.36-0.12,0.7-0.28,1C60.72,82.54,59.98,83,59.2,83c-0.33,0-0.65-0.08-0.95-0.24c0,0,0,0,0,0l-0.14-0.09l-3.68-2.31
		l-0.1,0.2l-4.19-2.36l-0.21-0.17L13.35,48.41L24.6,29.25l4.41,2.62l1.42,0.85l1.61-0.41l0.16-0.04l0,0l19.53-4.92
		C51.87,27.31,52.01,27.3,52.14,27.3 M52.14,23.3c-0.45,0-0.92,0.06-1.38,0.17l-19.67,4.95c-0.01,0-0.02,0.01-0.03,0.01l-7.87-4.67
		L8.16,49.35L47.4,81.13l-0.05,0.09l8.6,4.84l0.01-0.02c0.09,0.06,0.18,0.12,0.28,0.18C57.18,86.75,58.2,87,59.2,87
		c2.2,0,4.32-1.21,5.45-3.34c0.43-0.82,0.67-1.7,0.73-2.57c0.44,0.1,0.88,0.15,1.32,0.15c2.2,0,4.32-1.21,5.44-3.34
		c0.82-1.56,0.95-3.32,0.49-4.9c2.16-0.04,4.23-1.24,5.33-3.34c1.15-2.18,0.94-4.74-0.32-6.67c0.85-0.56,1.57-1.34,2.09-2.32
		c0.95-1.81,0.44-5.63-1.4-7.74c-0.32-0.37-0.68-0.7-1.08-0.94c-0.05-0.03-0.15-0.09-0.29-0.16L66.07,45.7l-0.03,0.05l-18.58-9.2
		l6.05-1.52c3.1-0.78,5-4,4.24-7.19C57.1,25.12,54.74,23.3,52.14,23.3L52.14,23.3z"/>
</g>
<path class="st1" d="M70.42,70.17c-0.9,0-1.8-0.22-2.64-0.7l-0.86-0.48l-10.89-6.13l-0.31,0.59l11.46,6.45l0.29,0.16
	c1.04,0.59,2.18,0.83,3.29,0.77C70.62,70.62,70.5,70.4,70.42,70.17z"/>
<path class="st1" d="M64.12,78.18c-0.38-0.11-0.76-0.27-1.12-0.47c-0.05-0.03-0.1-0.06-0.15-0.1l-0.1-0.06l-0.59-0.36l-0.02,0.03
	l-10.89-6.13l-0.31,0.59l11.46,6.45l0.01-0.01c0.09,0.06,0.18,0.12,0.28,0.18c0.47,0.26,0.96,0.45,1.45,0.58
	C64.1,78.65,64.09,78.41,64.12,78.18z"/>
<path class="st1" d="M73.39,60.97l-11.75-6.61l-0.31,0.59l10.89,6.13l0.86,0.48c0.74,0.42,1.35,0.99,1.82,1.65
	c0.22-0.09,0.44-0.15,0.67-0.19C75.03,62.2,74.3,61.48,73.39,60.97z"/>
<g>
	<path class="st0" d="M18.91,65.95c-1.11,0-2.12-0.53-2.78-1.46c-1.16-1.63-0.83-3.93,0.75-5.12l7.53-5.69
		C25,53.24,25.7,53,26.43,53c1.11,0,2.12,0.53,2.78,1.46c1.16,1.63,0.83,3.93-0.75,5.12l-7.53,5.69
		C20.34,65.72,19.64,65.95,18.91,65.95L18.91,65.95z"/>
	<path d="M26.43,55c0.45,0,0.87,0.23,1.16,0.62c0.53,0.74,0.38,1.83-0.33,2.36l-7.53,5.69c-0.25,0.19-0.52,0.28-0.82,0.28
		c-0.45,0-0.87-0.23-1.16-0.62c-0.53-0.74-0.38-1.83,0.33-2.36l7.53-5.69C25.86,55.09,26.13,55,26.43,55 M26.43,51
		c-1.12,0-2.26,0.36-3.23,1.09l-7.53,5.69c-2.43,1.84-2.96,5.37-1.17,7.87l0,0c1.07,1.5,2.73,2.3,4.41,2.3
		c1.12,0,2.26-0.36,3.23-1.09l7.53-5.69c2.43-1.84,2.96-5.37,1.17-7.87h0C29.77,51.8,28.11,51,26.43,51L26.43,51z"/>
</g>
<g>
	<path class="st0" d="M40.93,86c-0.77,0-1.51-0.29-2.1-0.8c-1.4-1.24-1.56-3.42-0.36-4.87l5.35-6.43c0.62-0.75,1.52-1.17,2.46-1.17
		c0.77,0,1.51,0.29,2.1,0.8c1.4,1.24,1.56,3.42,0.36,4.87l-5.35,6.43C42.77,85.57,41.87,86,40.93,86C40.93,86,40.93,86,40.93,86z"/>
	<path d="M46.28,74.73L46.28,74.73c0.2,0,0.49,0.05,0.78,0.3c0.59,0.52,0.65,1.47,0.14,2.09l-5.35,6.43
		C41.53,83.94,41.13,84,40.93,84c-0.2,0-0.49-0.05-0.78-0.3c-0.59-0.52-0.65-1.47-0.14-2.09l5.35-6.43
		C45.68,74.79,46.08,74.73,46.28,74.73 M46.28,70.73c-1.48,0-2.96,0.64-4,1.89l-5.35,6.43c-1.89,2.27-1.64,5.7,0.57,7.64h0
		c0.99,0.88,2.21,1.3,3.42,1.3c1.48,0,2.96-0.64,4-1.89l5.35-6.43c1.89-2.27,1.64-5.7-0.57-7.64h0
		C48.71,71.16,47.49,70.73,46.28,70.73L46.28,70.73z"/>
</g>
<g>
	<polygon class="st0" points="2.7,48.36 17.92,21.2 24.58,25.16 9.35,52.31 	"/>
	<path d="M18.66,23.97l3.22,1.91L8.61,49.55L5.4,47.63L18.66,23.97 M17.18,18.43L0,49.08l10.09,6l17.18-30.64L17.18,18.43
		L17.18,18.43z"/>
</g>
<g>
	<path class="st0" d="M31.52,81.75c-1.03,0-2.02-0.46-2.7-1.26c-1.36-1.58-1.22-4.01,0.31-5.41l9.42-8.6
		c0.66-0.6,1.51-0.94,2.39-0.94c1.03,0,2.02,0.46,2.7,1.26c1.36,1.58,1.22,4.01-0.31,5.41l-9.42,8.6
		C33.25,81.42,32.4,81.75,31.52,81.75C31.52,81.75,31.52,81.75,31.52,81.75z"/>
	<path d="M40.94,67.55c0.26,0,0.77,0.07,1.19,0.56c0.65,0.76,0.59,1.96-0.15,2.63l-9.42,8.6c-0.38,0.34-0.77,0.41-1.04,0.41
		c-0.26,0-0.77-0.07-1.19-0.56c-0.65-0.76-0.59-1.96,0.15-2.63l9.42-8.6C40.28,67.62,40.68,67.55,40.94,67.55L40.94,67.55
		 M40.94,63.55c-1.33,0-2.66,0.48-3.73,1.46l-9.42,8.6c-2.33,2.13-2.55,5.79-0.48,8.19h0c1.11,1.29,2.66,1.96,4.22,1.96
		c1.33,0,2.66-0.48,3.73-1.46l9.42-8.6c2.33-2.13,2.55-5.79,0.48-8.19l0,0C44.05,64.21,42.5,63.55,40.94,63.55L40.94,63.55z"/>
</g>
<g>
	<path class="st0" d="M23.25,76.26c-1.1,0-2.13-0.51-2.83-1.41c-1.28-1.65-1.03-4.07,0.58-5.39l13.64-11.23
		c0.65-0.53,1.42-0.81,2.24-0.81c1.1,0,2.13,0.51,2.83,1.41c1.28,1.65,1.02,4.07-0.58,5.39L25.49,75.45
		C24.84,75.98,24.07,76.26,23.25,76.26L23.25,76.26z"/>
	<path d="M36.88,59.42c0.28,0,0.82,0.08,1.25,0.63c0.62,0.79,0.49,1.99-0.27,2.62L24.22,73.9c-0.36,0.3-0.73,0.36-0.97,0.36
		c-0.28,0-0.82-0.08-1.25-0.63c-0.62-0.79-0.49-1.99,0.27-2.62l13.64-11.23C36.27,59.48,36.63,59.42,36.88,59.42 M36.88,55.42
		c-1.23,0-2.48,0.42-3.51,1.27L19.72,67.92c-2.43,2-2.83,5.65-0.88,8.16l0,0c1.11,1.43,2.75,2.18,4.41,2.18
		c1.23,0,2.48-0.42,3.51-1.27L40.4,65.76c2.43-2,2.83-5.65,0.88-8.16l0,0C40.17,56.17,38.53,55.42,36.88,55.42L36.88,55.42z"/>
</g>
<g>
	<path class="st0" d="M80.52,52.69c-0.19-0.27-0.38-0.53-0.59-0.78c-0.49-0.56-0.99-1-1.55-1.34c-0.09-0.06-0.23-0.14-0.42-0.24
		l-12.61-7.1l-0.08,0.14l-5.12-2.53l-1.55-1.05l-0.43,0.07l-0.92-0.46l-0.8,0.28c-0.99,0.35-1.97,0.67-2.92,0.94l-4.53,0.75
		l-0.63,6.41c-0.25,2.49-2.24,4.36-4.63,4.36l0,0c-0.16,0-0.31-0.01-0.47-0.02c-2.56-0.27-4.44-2.66-4.17-5.33l1.05-10.6
		c0.18-1.79,1.28-3.33,2.89-4.01l0.15-0.06l0.13-0.08c0.56-0.35,1.17-0.58,1.8-0.69l14.47-2.4l0.09-0.03
		c1.27-0.34,2.58-0.52,3.88-0.52c0.3,0,0.61,0.01,0.92,0.03c1.28,0.08,2.54,0.32,3.75,0.72l0.86,0.28l5.47-3.22L86.79,48.3
		L80.52,52.69z"/>
	<path d="M73.81,29l10.36,18.69L80.87,50c-0.46-0.44-0.94-0.82-1.45-1.13c-0.09-0.05-0.25-0.15-0.47-0.27l-10.83-6.1l-3.58-2.02
		l-0.13,0.24l-3.24-1.61l-0.78-0.53l-1.32-0.9l-0.58,0.1l-1.1-0.54l-1.59,0.56c-0.91,0.32-1.82,0.62-2.7,0.87l-2.9,0.48l-3.03,0.5
		l-0.3,3.05l-0.48,4.88c-0.14,1.46-1.28,2.56-2.64,2.56c-0.09,0-0.18,0-0.27-0.01C42.01,50,40.93,48.58,41.09,47l1.05-10.6
		c0.1-1.06,0.75-1.97,1.68-2.36l0.29-0.12l0.27-0.17c0.33-0.21,0.69-0.35,1.07-0.41l14.38-2.38l0.19-0.03l0.19-0.05
		c1.11-0.3,2.24-0.45,3.36-0.45c0.26,0,0.53,0.01,0.8,0.02c1.11,0.07,2.2,0.28,3.25,0.62l1.72,0.56l1.56-0.91L73.81,29 M75.32,23.47
		l-6.46,3.8c-1.34-0.44-2.77-0.72-4.24-0.81c-0.35-0.02-0.7-0.03-1.05-0.03c-1.52,0-2.99,0.21-4.4,0.58l-14.38,2.38
		c-0.93,0.15-1.78,0.49-2.54,0.96c-2.2,0.93-3.84,3.05-4.1,5.65l-1.05,10.6c-0.37,3.77,2.29,7.14,5.95,7.52
		c0.23,0.02,0.46,0.04,0.68,0.04c3.38,0,6.27-2.63,6.62-6.17l0.48-4.88l3.14-0.52c1.05-0.3,2.1-0.64,3.14-1.01l0.74,0.37l0.28-0.05
		l1,0.68l6.98,3.46l0.03-0.05l10.89,6.13c0.14,0.07,0.24,0.13,0.29,0.16c0.4,0.25,0.76,0.57,1.08,0.94
		c0.59,0.68,1.04,1.53,1.35,2.43l9.65-6.76L75.32,23.47L75.32,23.47z"/>
</g>
<g>
	<polygon class="st0" points="75.54,23.69 82.21,19.76 97.31,46.99 90.63,50.92 	"/>
	<path d="M81.46,22.53l13.15,23.73l-3.22,1.9L78.23,24.42L81.46,22.53 M82.97,17l-10.12,5.95l17.03,30.73L100,47.73L82.97,17
		L82.97,17z"/>
</g>
</svg>
