<?xml version="1.0" encoding="utf-8"?>
<!-- Generator: Adobe Illustrator 24.0.1, SVG Export Plug-In . SVG Version: 6.00 Build 0)  -->
<svg version="1.1" id="Layer_1" xmlns="http://www.w3.org/2000/svg" xmlns:xlink="http://www.w3.org/1999/xlink" x="0px" y="0px"
	 viewBox="0 0 100 100" style="enable-background:new 0 0 100 100;" xml:space="preserve">
<style type="text/css">
	.st0{clip-path:url(#SVGID_2_);}
	.st1{fill:#231F20;}
	.st2{fill:#FCFCFC;}
	.st3{fill:none;stroke:#000000;stroke-miterlimit:10;}
</style>
<g>
	<defs>
		<path id="SVGID_1_" d="M74.93,99H25.07C11.78,99,1,88.22,1,74.93V25.07C1,11.78,11.78,1,25.07,1h49.86C88.22,1,99,11.78,99,25.07
			v49.86C99,88.22,88.22,99,74.93,99z"/>
	</defs>
	<use xlink:href="#SVGID_1_"  style="overflow:visible;fill:#BDC9DB;"/>
	<clipPath id="SVGID_2_">
		<use xlink:href="#SVGID_1_"  style="overflow:visible;"/>
	</clipPath>
	<g class="st0">
		<g>
			<g>
				<g>
					<path class="st1" d="M91.43,40L78.36,67.74c-3.45,7.33-6.65,14.41-8.83,20.91h-0.24c-2.06-6.57-4.92-13.41-8.25-20.99L49,40
						H38.22l12.09,26.92c-2.98,0.57-6.29,0.88-9.58,0.88c-18.68,0-29.5-10.31-29.5-26.34c0-17.21,11.96-27.02,29.95-27.02
						c6.38,0,11.74,1.17,15.49,2.72l2.38-6.9c-2.62-1.17-8.65-2.92-18.21-2.92c-23.81,0-40.09,13.89-40.09,34.4
						c0,21.49,16.29,33.15,37.92,33.15c5.77,0,10.76-0.6,14.58-1.43l10.2,22.69h11L102.1,40H91.43z"/>
				</g>
				<g>
					<path class="st2" d="M91.43,40L78.36,67.74c-3.45,7.33-6.65,14.41-8.83,20.91h-0.24c-2.06-6.57-4.92-13.41-8.25-20.99L49,40
						H38.22l12.09,26.92c-2.98,0.57-6.29,0.88-9.58,0.88c-18.68,0-29.5-10.31-29.5-26.34c0-17.21,11.96-27.02,29.95-27.02
						c6.38,0,11.74,1.17,15.49,2.72l2.38-6.9c-2.62-1.17-8.65-2.92-18.21-2.92c-23.81,0-40.09,13.89-40.09,34.4
						c0,21.49,16.29,33.15,37.92,33.15c5.77,0,10.76-0.6,14.58-1.43l10.2,22.69h11L102.1,40H91.43z"/>
				</g>
				<g>
					<path class="st3" d="M91.43,40L78.36,67.74c-3.45,7.33-6.65,14.41-8.83,20.91h-0.24c-2.06-6.57-4.92-13.41-8.25-20.99L49,40
						H38.22l12.09,26.92c-2.98,0.57-6.29,0.88-9.58,0.88c-18.68,0-29.5-10.31-29.5-26.34c0-17.21,11.96-27.02,29.95-27.02
						c6.38,0,11.74,1.17,15.49,2.72l2.38-6.9c-2.62-1.17-8.65-2.92-18.21-2.92c-23.81,0-40.09,13.89-40.09,34.4
						c0,21.49,16.29,33.15,37.92,33.15c5.77,0,10.76-0.6,14.58-1.43l10.2,22.69h11L102.1,40H91.43z"/>
				</g>
			</g>
		</g>
	</g>
	<use xlink:href="#SVGID_1_"  style="overflow:visible;fill:none;stroke:#000000;stroke-miterlimit:10;"/>
</g>
</svg>
