<?xml version="1.0" encoding="utf-8"?>
<!-- Generator: Adobe Illustrator 24.1.2, SVG Export Plug-In . SVG Version: 6.00 Build 0)  -->
<svg version="1.1" id="Layer_1" xmlns="http://www.w3.org/2000/svg" xmlns:xlink="http://www.w3.org/1999/xlink" x="0px" y="0px"
	 viewBox="0 0 100 100" style="enable-background:new 0 0 100 100;" xml:space="preserve">
<style type="text/css">
	.st0{opacity:0.3;fill:#FFFFFF;stroke:#000000;stroke-miterlimit:10;}
	.st1{fill:#00CEF9;stroke:#000000;stroke-miterlimit:10;}
	.st2{fill:#00C467;stroke:#000000;stroke-miterlimit:10;}
</style>
<path d="M72.6,99H27.4C12.8,99,1,87.2,1,72.6V27.4C1,12.8,12.8,1,27.4,1h45.3C87.2,1,99,12.8,99,27.4v45.3C99,87.2,87.2,99,72.6,99z
	"/>
<circle class="st0" cx="35.6" cy="50" r="29.3"/>
<circle class="st0" cx="65.1" cy="50" r="29.3"/>
<g>
	<path class="st1" d="M35.6,79.3C35.6,63.1,22.4,50,6.2,50C6.2,66.2,19.4,79.3,35.6,79.3z"/>
	<path class="st1" d="M35.6,20.6C19.4,20.6,6.2,33.8,6.2,50C22.4,50,35.6,36.8,35.6,20.6z"/>
</g>
<g>
	<path class="st2" d="M94.4,50.3c-16.2,0-29.3,13.1-29.3,29.3C81.3,79.6,94.4,66.5,94.4,50.3z"/>
	<path class="st2" d="M35.8,50.3c0,16.2,13.1,29.3,29.3,29.3C65.1,63.4,52,50.3,35.8,50.3z"/>
</g>
</svg>
