<?xml version="1.0" encoding="utf-8"?>
<!-- Generator: Adobe Illustrator 24.0.3, SVG Export Plug-In . SVG Version: 6.00 Build 0)  -->
<svg version="1.1" id="Layer_1" xmlns="http://www.w3.org/2000/svg" xmlns:xlink="http://www.w3.org/1999/xlink" x="0px" y="0px"
	 viewBox="0 0 100 100" style="enable-background:new 0 0 100 100;" xml:space="preserve">
<style type="text/css">
	.st0{fill:#FFFFFF;}
</style>
<g>
	<path class="st0" d="M10.22,86v-8.76c1.64-0.63,3.99-1.24,7.02-2.02c4.27-1.1,10.13-2.6,17.63-5.15l0.97-0.33l2.96-9.62l-1.01-0.85
		c-5.64-4.75-9.01-12.57-9.01-20.91C28.77,24.38,38.07,13,49.5,13c11.43,0,20.73,11.38,20.73,25.37c0,8.34-3.37,16.16-9.01,20.91
		l-1.01,0.85l2.96,9.62l0.97,0.33c7.97,2.7,13.78,4.23,18.02,5.35c2.73,0.72,4.86,1.28,6.63,1.9V86H10.22z"/>
	<path d="M49.5,15c10.33,0,18.73,10.48,18.73,23.37c0,7.76-3.1,15-8.3,19.38l-2.03,1.71l0.78,2.53l2.27,7.38l0.6,1.96l1.94,0.66
		c8.04,2.72,13.88,4.26,18.15,5.39c2.02,0.53,3.71,0.98,5.14,1.42V84H12.22v-5.34c1.46-0.46,3.35-0.95,5.52-1.5
		c4.3-1.11,10.2-2.62,17.77-5.19l1.94-0.66l0.6-1.96l2.27-7.38l0.78-2.53l-2.03-1.71c-5.2-4.38-8.3-11.62-8.3-19.38
		C30.77,25.48,39.17,15,49.5,15 M49.5,11c-12.55,0-22.73,12.25-22.73,27.37c0,9.29,3.85,17.49,9.72,22.44l-2.27,7.38
		C20,73,12,74,8.22,75.94V88h82.57V75.94C86,74,79,73,64.78,68.18l-2.27-7.38c5.88-4.95,9.72-13.15,9.72-22.44
		C72.23,23.25,62.05,11,49.5,11L49.5,11z"/>
</g>
</svg>
