<?xml version="1.0" encoding="utf-8"?>
<!-- Generator: Adobe Illustrator 24.0.3, SVG Export Plug-In . SVG Version: 6.00 Build 0)  -->
<svg version="1.1" id="Layer_1" xmlns="http://www.w3.org/2000/svg" xmlns:xlink="http://www.w3.org/1999/xlink" x="0px" y="0px"
	 viewBox="0 0 100 100" style="enable-background:new 0 0 100 100;" xml:space="preserve">
<style type="text/css">
	.st0{fill:#FFFFFF;}
</style>
<g>
	<path class="st0" d="M7,89V78c0.33-1.34,7.39-4.85,26.19-6.37l1.35-0.11l3.23-10.51l-1.01-0.85C30.65,55.01,27,46.54,27,37.5
		C27,22.34,37.09,10,49.5,10C61.91,10,72,22.34,72,37.5c0,9.04-3.65,17.51-9.77,22.66l-1.01,0.85l3.23,10.51l1.35,0.11
		c18.8,1.52,25.86,5.02,26.2,6.39L92,89H7z"/>
	<path d="M49.5,12C60.8,12,70,23.44,70,37.5c0,8.45-3.39,16.35-9.06,21.13l-2.03,1.71l0.78,2.53l2.45,7.95l0.8,2.59l2.7,0.22
		c16.12,1.3,22.75,3.99,24.36,5.16V87H9v-8.21c1.6-1.17,8.24-3.86,24.36-5.16l2.7-0.22l0.8-2.59l2.45-7.95l0.78-2.53l-2.03-1.71
		C32.39,53.85,29,45.95,29,37.5C29,23.44,38.2,12,49.5,12 M49.5,8C35.97,8,25,21.21,25,37.5c0,10.01,4.15,18.85,10.48,24.19
		l-2.45,7.95C16.61,70.96,5,74.21,5,78v13h89V78c0-3.79-11.61-7.04-28.03-8.36l-2.45-7.95C69.85,56.35,74,47.51,74,37.5
		C74,21.21,63.03,8,49.5,8L49.5,8z"/>
</g>
</svg>
