<?xml version="1.0" encoding="utf-8"?>
<!-- Generator: Adobe Illustrator 24.0.1, SVG Export Plug-In . SVG Version: 6.00 Build 0)  -->
<svg version="1.1" id="Layer_1" xmlns="http://www.w3.org/2000/svg" xmlns:xlink="http://www.w3.org/1999/xlink" x="0px" y="0px"
	 viewBox="0 0 100 100" style="enable-background:new 0 0 100 100;" xml:space="preserve">
<style type="text/css">
	.st0{fill:#FFFFFF;}
</style>
<g>
	<g>
		<path class="st0" d="M48.14,48.59l21.88-21.08l-0.48-0.35c-1.87-1.38-3.82-2.77-5.68-4.08c-3.76-2.67-8.39-5.95-8.96-7.02
			l8.87-12.64c0.02,0,0.04,0,0.07,0c1.83,0,8.61,4.52,14.59,8.5c1.25,0.83,2.5,1.66,3.71,2.46l0.34,0.23l1.22-1.25l3.4,3.23
			l-1.03,1.16l0.24,0.32c0.84,1.14,1.7,2.32,2.56,3.49c4.04,5.48,9.53,12.93,9.62,14.46l-11.27,9.45
			c-2.35-1.05-10.17-10.22-12.79-13.3l-0.38-0.44L54.05,54.58L48.14,48.59z"/>
		<path d="M64.02,3.92c1.95,0.29,8.69,4.78,14.14,8.4c1.25,0.83,2.49,1.66,3.71,2.46l0.69,0.45l0.58-0.59l0.59-0.6l2.69,2.55
			l-0.44,0.5l-0.53,0.6l0.48,0.65c0.84,1.15,1.7,2.32,2.57,3.5c3.78,5.12,8.87,12.04,9.46,13.97l-10.79,9.04
			c-1.24-0.74-4.44-3.77-12.34-13.04l-0.75-0.88l-0.76,0.87L54.03,53.85l-5.18-5.25l21.09-20.32l0.85-0.82l-0.95-0.7
			c-1.88-1.38-3.81-2.76-5.69-4.09c-3.43-2.43-7.63-5.41-8.63-6.62L64.02,3.92 M63.84,2.9c-0.16,0-0.29,0.03-0.39,0.08l-9.1,12.98
			c0.18,1.47,8.09,6.58,14.89,11.59L47.42,48.58l6.65,6.74l19.99-22.85c4.97,5.83,11.32,13.07,13.28,13.55l11.65-9.76
			c0.43-1.59-6.55-10.69-12.26-18.5l1.08-1.22l-4.11-3.9l-1.28,1.31C74.92,9.01,66.2,2.9,63.84,2.9L63.84,2.9z"/>
	</g>
	<g>
		<polygon class="st0" points="8.29,86.99 39.91,56.52 46.04,63.75 17.58,96.28 		"/>
		<path d="M39.87,57.25l5.5,6.49L17.55,95.55L9,87L39.87,57.25 M39.95,55.79L7.57,86.98L17.6,97.01L46.7,63.75L39.95,55.79
			L39.95,55.79z"/>
	</g>
	<g>
		<path class="st0" d="M21.22,32.93l-2.35,2.22l3.41,3.61c-0.33,1.53-12.92,6.87-17.42,6.87c-0.63,0-0.76-0.13-0.76-0.13l-0.04-0.08
			l-0.05-0.05L1.7,42.92l-0.07-0.04c-0.1-0.06-0.3-0.59,0.12-2.23c1.44-5.58,6.96-14.6,8.51-14.6l-0.08-0.09l3.77,3.99l2.44-2.31
			l-4.63-5.11l4.76-4.5l4.86,4.9l2.88-2.72l-3.45-3.65l14.1-13.32c1.7,0.57,10.86,10.26,11.37,12.04l-14.1,13.32l-3.01-3.19
			l-2.75,2.59l57.96,58.74l-9.75,9.17L21.22,32.93z"/>
		<path d="M35,3.86c2.11,1.27,9.53,9.13,10.68,11.31L32.2,27.9l-2.33-2.46l-0.69-0.73l-0.73,0.69l-2.01,1.9L25.71,28l0.72,0.73
			l20.28,20.56l6.65,6.74l30.31,30.72l-9,8.46L47.46,63.1l-6.75-7.96L21.94,33.01l-0.68-0.8l-0.77,0.72l-1.6,1.51l-0.73,0.69
			l0.69,0.73l2.77,2.93c-1.73,1.82-12.88,6.34-16.76,6.34c-0.21,0-0.34-0.02-0.41-0.03l-0.07-0.08l-2.26-2.39l-0.11-0.11l0,0
			c-0.17-0.77,0.62-3.82,2.96-8.39c2.34-4.57,4.37-7.06,5.15-7.51l3.13,3.32l0.69,0.73l0.73-0.69l1.72-1.63l0.71-0.67l-0.66-0.73
			l-3.98-4.39l4.05-3.82l4.17,4.21l0.69,0.69l0.71-0.67l2.16-2.04l0.73-0.69l-0.69-0.73l-2.76-2.92L35,3.86 M34.83,2.73
			c-0.06,0-0.1,0.01-0.13,0.04L20.11,16.55l3.45,3.65l-2.16,2.04l-4.86-4.9l-5.47,5.17l4.63,5.11l-1.72,1.63l-3.43-3.63
			c-0.09-0.05-0.18-0.07-0.28-0.07c-2.75,0-11.18,16.49-8.88,17.77l2.26,2.39c0.12,0.29,0.55,0.42,1.21,0.42
			c4.37,0,18.68-5.67,17.88-7.6l-3.17-3.36l1.6-1.51l18.77,22.13l6.75,7.96l27.89,32.9l10.51-9.88L54.07,55.32l-6.65-6.74
			L27.14,28.02l2.01-1.9l3.01,3.19l14.59-13.78C47.66,14.68,36.43,2.73,34.83,2.73L34.83,2.73z"/>
	</g>
</g>
</svg>
